<mxfile host="app.diagrams.net" modified="2020-11-17T09:58:46.512Z" agent="5.0 (Windows NT 10.0; Win64; x64) AppleWebKit/537.36 (KHTML, like Gecko) Chrome/86.0.4240.193 Safari/537.36" etag="3UEcWeaYfYgvyte_Zc8I" version="13.9.9" type="github">
  <diagram id="38nXC5MtWWAvu6_uEwTx" name="Page-1">
    <mxGraphModel dx="1240" dy="657" grid="1" gridSize="10" guides="1" tooltips="1" connect="1" arrows="1" fold="1" page="1" pageScale="1" pageWidth="827" pageHeight="1169" math="0" shadow="0">
      <root>
        <mxCell id="0" />
        <mxCell id="1" parent="0" />
        <mxCell id="speEOfXEWhn_3PzwrjjU-1" value="" style="rounded=0;whiteSpace=wrap;html=1;" vertex="1" parent="1">
          <mxGeometry x="20" y="640" width="300" height="800" as="geometry" />
        </mxCell>
        <mxCell id="speEOfXEWhn_3PzwrjjU-21" value="H1 (animation ScrollReveal)&lt;br&gt;H2" style="rounded=0;whiteSpace=wrap;html=1;" vertex="1" parent="1">
          <mxGeometry x="20" y="690" width="300" height="120" as="geometry" />
        </mxCell>
        <mxCell id="B3Y2nrr8rf5n5sNnrnTJ-5" value="" style="rounded=0;whiteSpace=wrap;html=1;" parent="1" vertex="1">
          <mxGeometry x="20" y="10" width="790" height="590" as="geometry" />
        </mxCell>
        <mxCell id="B3Y2nrr8rf5n5sNnrnTJ-6" value="NAVBAR" style="rounded=0;whiteSpace=wrap;html=1;" parent="1" vertex="1">
          <mxGeometry x="20" y="10" width="790" height="50" as="geometry" />
        </mxCell>
        <mxCell id="B3Y2nrr8rf5n5sNnrnTJ-7" value="LOGO" style="rounded=0;whiteSpace=wrap;html=1;" parent="1" vertex="1">
          <mxGeometry x="30" y="15" width="120" height="40" as="geometry" />
        </mxCell>
        <mxCell id="B3Y2nrr8rf5n5sNnrnTJ-9" value="H1 (animation ScrollReveal)&lt;br&gt;H2" style="rounded=0;whiteSpace=wrap;html=1;" parent="1" vertex="1">
          <mxGeometry x="20" y="60" width="790" height="120" as="geometry" />
        </mxCell>
        <mxCell id="B3Y2nrr8rf5n5sNnrnTJ-49" value="" style="group" parent="1" vertex="1" connectable="0">
          <mxGeometry x="114" y="200" width="600" height="230" as="geometry" />
        </mxCell>
        <mxCell id="B3Y2nrr8rf5n5sNnrnTJ-20" value="" style="group" parent="B3Y2nrr8rf5n5sNnrnTJ-49" vertex="1" connectable="0">
          <mxGeometry width="120" height="230" as="geometry" />
        </mxCell>
        <mxCell id="B3Y2nrr8rf5n5sNnrnTJ-8" value="" style="rounded=1;whiteSpace=wrap;html=1;" parent="B3Y2nrr8rf5n5sNnrnTJ-20" vertex="1">
          <mxGeometry width="120" height="230" as="geometry" />
        </mxCell>
        <mxCell id="B3Y2nrr8rf5n5sNnrnTJ-12" value="TITRE" style="rounded=0;whiteSpace=wrap;html=1;" parent="B3Y2nrr8rf5n5sNnrnTJ-20" vertex="1">
          <mxGeometry y="50" width="120" height="20" as="geometry" />
        </mxCell>
        <mxCell id="B3Y2nrr8rf5n5sNnrnTJ-13" value="IMAGE" style="text;html=1;strokeColor=none;fillColor=none;align=center;verticalAlign=middle;whiteSpace=wrap;rounded=0;" parent="B3Y2nrr8rf5n5sNnrnTJ-20" vertex="1">
          <mxGeometry x="40" y="20" width="40" height="20" as="geometry" />
        </mxCell>
        <mxCell id="B3Y2nrr8rf5n5sNnrnTJ-15" value="EXTRAIT" style="rounded=0;whiteSpace=wrap;html=1;" parent="B3Y2nrr8rf5n5sNnrnTJ-20" vertex="1">
          <mxGeometry y="70" width="120" height="50" as="geometry" />
        </mxCell>
        <mxCell id="B3Y2nrr8rf5n5sNnrnTJ-16" value="DATE" style="rounded=0;whiteSpace=wrap;html=1;" parent="B3Y2nrr8rf5n5sNnrnTJ-20" vertex="1">
          <mxGeometry y="120" width="60" height="20" as="geometry" />
        </mxCell>
        <mxCell id="B3Y2nrr8rf5n5sNnrnTJ-17" value="TAGS" style="rounded=0;whiteSpace=wrap;html=1;" parent="B3Y2nrr8rf5n5sNnrnTJ-20" vertex="1">
          <mxGeometry y="140" width="120" height="20" as="geometry" />
        </mxCell>
        <mxCell id="B3Y2nrr8rf5n5sNnrnTJ-18" value="AUTEUR" style="rounded=0;whiteSpace=wrap;html=1;" parent="B3Y2nrr8rf5n5sNnrnTJ-20" vertex="1">
          <mxGeometry y="160" width="120" height="30" as="geometry" />
        </mxCell>
        <mxCell id="B3Y2nrr8rf5n5sNnrnTJ-19" value="&lt;font style=&quot;font-size: 10px&quot;&gt;BOUTON&lt;/font&gt;" style="rounded=1;whiteSpace=wrap;html=1;" parent="B3Y2nrr8rf5n5sNnrnTJ-20" vertex="1">
          <mxGeometry x="10" y="200" width="50" height="20" as="geometry" />
        </mxCell>
        <mxCell id="B3Y2nrr8rf5n5sNnrnTJ-21" value="" style="group" parent="B3Y2nrr8rf5n5sNnrnTJ-49" vertex="1" connectable="0">
          <mxGeometry x="160" width="120" height="230" as="geometry" />
        </mxCell>
        <mxCell id="B3Y2nrr8rf5n5sNnrnTJ-22" value="" style="rounded=1;whiteSpace=wrap;html=1;" parent="B3Y2nrr8rf5n5sNnrnTJ-21" vertex="1">
          <mxGeometry width="120" height="230" as="geometry" />
        </mxCell>
        <mxCell id="B3Y2nrr8rf5n5sNnrnTJ-23" value="TITRE" style="rounded=0;whiteSpace=wrap;html=1;" parent="B3Y2nrr8rf5n5sNnrnTJ-21" vertex="1">
          <mxGeometry y="50" width="120" height="20" as="geometry" />
        </mxCell>
        <mxCell id="B3Y2nrr8rf5n5sNnrnTJ-24" value="IMAGE" style="text;html=1;strokeColor=none;fillColor=none;align=center;verticalAlign=middle;whiteSpace=wrap;rounded=0;" parent="B3Y2nrr8rf5n5sNnrnTJ-21" vertex="1">
          <mxGeometry x="40" y="20" width="40" height="20" as="geometry" />
        </mxCell>
        <mxCell id="B3Y2nrr8rf5n5sNnrnTJ-25" value="EXTRAIT" style="rounded=0;whiteSpace=wrap;html=1;" parent="B3Y2nrr8rf5n5sNnrnTJ-21" vertex="1">
          <mxGeometry y="70" width="120" height="50" as="geometry" />
        </mxCell>
        <mxCell id="B3Y2nrr8rf5n5sNnrnTJ-26" value="DATE" style="rounded=0;whiteSpace=wrap;html=1;" parent="B3Y2nrr8rf5n5sNnrnTJ-21" vertex="1">
          <mxGeometry y="120" width="60" height="20" as="geometry" />
        </mxCell>
        <mxCell id="B3Y2nrr8rf5n5sNnrnTJ-27" value="TAGS" style="rounded=0;whiteSpace=wrap;html=1;" parent="B3Y2nrr8rf5n5sNnrnTJ-21" vertex="1">
          <mxGeometry y="140" width="120" height="20" as="geometry" />
        </mxCell>
        <mxCell id="B3Y2nrr8rf5n5sNnrnTJ-28" value="AUTEUR" style="rounded=0;whiteSpace=wrap;html=1;" parent="B3Y2nrr8rf5n5sNnrnTJ-21" vertex="1">
          <mxGeometry y="160" width="120" height="30" as="geometry" />
        </mxCell>
        <mxCell id="B3Y2nrr8rf5n5sNnrnTJ-29" value="&lt;font style=&quot;font-size: 10px&quot;&gt;BOUTON&lt;/font&gt;" style="rounded=1;whiteSpace=wrap;html=1;" parent="B3Y2nrr8rf5n5sNnrnTJ-21" vertex="1">
          <mxGeometry x="10" y="200" width="50" height="20" as="geometry" />
        </mxCell>
        <mxCell id="B3Y2nrr8rf5n5sNnrnTJ-30" value="" style="group" parent="B3Y2nrr8rf5n5sNnrnTJ-49" vertex="1" connectable="0">
          <mxGeometry x="320" width="120" height="230" as="geometry" />
        </mxCell>
        <mxCell id="B3Y2nrr8rf5n5sNnrnTJ-31" value="" style="rounded=1;whiteSpace=wrap;html=1;" parent="B3Y2nrr8rf5n5sNnrnTJ-30" vertex="1">
          <mxGeometry width="120" height="230" as="geometry" />
        </mxCell>
        <mxCell id="B3Y2nrr8rf5n5sNnrnTJ-32" value="TITRE" style="rounded=0;whiteSpace=wrap;html=1;" parent="B3Y2nrr8rf5n5sNnrnTJ-30" vertex="1">
          <mxGeometry y="50" width="120" height="20" as="geometry" />
        </mxCell>
        <mxCell id="B3Y2nrr8rf5n5sNnrnTJ-33" value="IMAGE" style="text;html=1;strokeColor=none;fillColor=none;align=center;verticalAlign=middle;whiteSpace=wrap;rounded=0;" parent="B3Y2nrr8rf5n5sNnrnTJ-30" vertex="1">
          <mxGeometry x="40" y="20" width="40" height="20" as="geometry" />
        </mxCell>
        <mxCell id="B3Y2nrr8rf5n5sNnrnTJ-34" value="EXTRAIT" style="rounded=0;whiteSpace=wrap;html=1;" parent="B3Y2nrr8rf5n5sNnrnTJ-30" vertex="1">
          <mxGeometry y="70" width="120" height="50" as="geometry" />
        </mxCell>
        <mxCell id="B3Y2nrr8rf5n5sNnrnTJ-35" value="DATE" style="rounded=0;whiteSpace=wrap;html=1;" parent="B3Y2nrr8rf5n5sNnrnTJ-30" vertex="1">
          <mxGeometry y="120" width="60" height="20" as="geometry" />
        </mxCell>
        <mxCell id="B3Y2nrr8rf5n5sNnrnTJ-36" value="TAGS" style="rounded=0;whiteSpace=wrap;html=1;" parent="B3Y2nrr8rf5n5sNnrnTJ-30" vertex="1">
          <mxGeometry y="140" width="120" height="20" as="geometry" />
        </mxCell>
        <mxCell id="B3Y2nrr8rf5n5sNnrnTJ-37" value="AUTEUR" style="rounded=0;whiteSpace=wrap;html=1;" parent="B3Y2nrr8rf5n5sNnrnTJ-30" vertex="1">
          <mxGeometry y="160" width="120" height="30" as="geometry" />
        </mxCell>
        <mxCell id="B3Y2nrr8rf5n5sNnrnTJ-38" value="&lt;font style=&quot;font-size: 10px&quot;&gt;BOUTON&lt;/font&gt;" style="rounded=1;whiteSpace=wrap;html=1;" parent="B3Y2nrr8rf5n5sNnrnTJ-30" vertex="1">
          <mxGeometry x="10" y="200" width="50" height="20" as="geometry" />
        </mxCell>
        <mxCell id="B3Y2nrr8rf5n5sNnrnTJ-40" value="" style="group" parent="B3Y2nrr8rf5n5sNnrnTJ-49" vertex="1" connectable="0">
          <mxGeometry x="480" width="120" height="230" as="geometry" />
        </mxCell>
        <mxCell id="B3Y2nrr8rf5n5sNnrnTJ-41" value="" style="rounded=1;whiteSpace=wrap;html=1;" parent="B3Y2nrr8rf5n5sNnrnTJ-40" vertex="1">
          <mxGeometry width="120" height="230" as="geometry" />
        </mxCell>
        <mxCell id="B3Y2nrr8rf5n5sNnrnTJ-42" value="TITRE" style="rounded=0;whiteSpace=wrap;html=1;" parent="B3Y2nrr8rf5n5sNnrnTJ-40" vertex="1">
          <mxGeometry y="50" width="120" height="20" as="geometry" />
        </mxCell>
        <mxCell id="B3Y2nrr8rf5n5sNnrnTJ-43" value="IMAGE" style="text;html=1;strokeColor=none;fillColor=none;align=center;verticalAlign=middle;whiteSpace=wrap;rounded=0;" parent="B3Y2nrr8rf5n5sNnrnTJ-40" vertex="1">
          <mxGeometry x="40" y="20" width="40" height="20" as="geometry" />
        </mxCell>
        <mxCell id="B3Y2nrr8rf5n5sNnrnTJ-44" value="EXTRAIT" style="rounded=0;whiteSpace=wrap;html=1;" parent="B3Y2nrr8rf5n5sNnrnTJ-40" vertex="1">
          <mxGeometry y="70" width="120" height="50" as="geometry" />
        </mxCell>
        <mxCell id="B3Y2nrr8rf5n5sNnrnTJ-45" value="DATE" style="rounded=0;whiteSpace=wrap;html=1;" parent="B3Y2nrr8rf5n5sNnrnTJ-40" vertex="1">
          <mxGeometry y="120" width="60" height="20" as="geometry" />
        </mxCell>
        <mxCell id="B3Y2nrr8rf5n5sNnrnTJ-46" value="TAGS" style="rounded=0;whiteSpace=wrap;html=1;" parent="B3Y2nrr8rf5n5sNnrnTJ-40" vertex="1">
          <mxGeometry y="140" width="120" height="20" as="geometry" />
        </mxCell>
        <mxCell id="B3Y2nrr8rf5n5sNnrnTJ-47" value="AUTEUR" style="rounded=0;whiteSpace=wrap;html=1;" parent="B3Y2nrr8rf5n5sNnrnTJ-40" vertex="1">
          <mxGeometry y="160" width="120" height="30" as="geometry" />
        </mxCell>
        <mxCell id="B3Y2nrr8rf5n5sNnrnTJ-48" value="&lt;font style=&quot;font-size: 10px&quot;&gt;BOUTON&lt;/font&gt;" style="rounded=1;whiteSpace=wrap;html=1;" parent="B3Y2nrr8rf5n5sNnrnTJ-40" vertex="1">
          <mxGeometry x="10" y="200" width="50" height="20" as="geometry" />
        </mxCell>
        <mxCell id="B3Y2nrr8rf5n5sNnrnTJ-50" value="FOOTER" style="rounded=0;whiteSpace=wrap;html=1;" parent="1" vertex="1">
          <mxGeometry x="20" y="500" width="790" height="100" as="geometry" />
        </mxCell>
        <mxCell id="speEOfXEWhn_3PzwrjjU-2" value="" style="group" vertex="1" connectable="0" parent="1">
          <mxGeometry x="40" y="820" width="272" height="512" as="geometry" />
        </mxCell>
        <mxCell id="speEOfXEWhn_3PzwrjjU-3" value="" style="rounded=1;whiteSpace=wrap;html=1;" vertex="1" parent="speEOfXEWhn_3PzwrjjU-2">
          <mxGeometry width="266.09" height="510" as="geometry" />
        </mxCell>
        <mxCell id="speEOfXEWhn_3PzwrjjU-4" value="TITRE" style="rounded=0;whiteSpace=wrap;html=1;" vertex="1" parent="speEOfXEWhn_3PzwrjjU-2">
          <mxGeometry y="110.86956521739131" width="266.09" height="44.34782608695652" as="geometry" />
        </mxCell>
        <mxCell id="speEOfXEWhn_3PzwrjjU-5" value="IMAGE" style="text;html=1;strokeColor=none;fillColor=none;align=center;verticalAlign=middle;whiteSpace=wrap;rounded=0;" vertex="1" parent="speEOfXEWhn_3PzwrjjU-2">
          <mxGeometry x="88.69666666666666" y="44.34782608695652" width="88.69666666666666" height="44.34782608695652" as="geometry" />
        </mxCell>
        <mxCell id="speEOfXEWhn_3PzwrjjU-6" value="EXTRAIT" style="rounded=0;whiteSpace=wrap;html=1;" vertex="1" parent="speEOfXEWhn_3PzwrjjU-2">
          <mxGeometry y="155.21739130434784" width="266.09" height="110.86956521739131" as="geometry" />
        </mxCell>
        <mxCell id="speEOfXEWhn_3PzwrjjU-7" value="DATE" style="rounded=0;whiteSpace=wrap;html=1;" vertex="1" parent="speEOfXEWhn_3PzwrjjU-2">
          <mxGeometry y="266.0869565217391" width="133.045" height="44.34782608695652" as="geometry" />
        </mxCell>
        <mxCell id="speEOfXEWhn_3PzwrjjU-8" value="TAGS" style="rounded=0;whiteSpace=wrap;html=1;" vertex="1" parent="speEOfXEWhn_3PzwrjjU-2">
          <mxGeometry y="310.4347826086957" width="266.09" height="44.34782608695652" as="geometry" />
        </mxCell>
        <mxCell id="speEOfXEWhn_3PzwrjjU-9" value="AUTEUR" style="rounded=0;whiteSpace=wrap;html=1;" vertex="1" parent="speEOfXEWhn_3PzwrjjU-2">
          <mxGeometry y="354.7826086956522" width="266.09" height="66.52173913043478" as="geometry" />
        </mxCell>
        <mxCell id="speEOfXEWhn_3PzwrjjU-10" value="&lt;font style=&quot;font-size: 10px&quot;&gt;BOUTON&lt;/font&gt;" style="rounded=1;whiteSpace=wrap;html=1;" vertex="1" parent="speEOfXEWhn_3PzwrjjU-2">
          <mxGeometry x="22.174166666666665" y="443.47826086956525" width="110.87083333333332" height="44.34782608695652" as="geometry" />
        </mxCell>
        <mxCell id="speEOfXEWhn_3PzwrjjU-12" value="NAVBAR" style="rounded=0;whiteSpace=wrap;html=1;" vertex="1" parent="1">
          <mxGeometry x="20" y="640" width="300" height="50" as="geometry" />
        </mxCell>
        <mxCell id="speEOfXEWhn_3PzwrjjU-14" value="LOGO" style="rounded=0;whiteSpace=wrap;html=1;" vertex="1" parent="1">
          <mxGeometry x="30" y="648.75" width="80" height="32.5" as="geometry" />
        </mxCell>
        <mxCell id="speEOfXEWhn_3PzwrjjU-18" value="" style="group" vertex="1" connectable="0" parent="1">
          <mxGeometry x="290" y="660" width="16" height="8" as="geometry" />
        </mxCell>
        <mxCell id="speEOfXEWhn_3PzwrjjU-15" value="" style="endArrow=none;html=1;" edge="1" parent="speEOfXEWhn_3PzwrjjU-18">
          <mxGeometry width="50" height="50" relative="1" as="geometry">
            <mxPoint as="sourcePoint" />
            <mxPoint x="16" as="targetPoint" />
          </mxGeometry>
        </mxCell>
        <mxCell id="speEOfXEWhn_3PzwrjjU-16" value="" style="endArrow=none;html=1;" edge="1" parent="speEOfXEWhn_3PzwrjjU-18">
          <mxGeometry width="50" height="50" relative="1" as="geometry">
            <mxPoint y="4" as="sourcePoint" />
            <mxPoint x="16" y="4" as="targetPoint" />
          </mxGeometry>
        </mxCell>
        <mxCell id="speEOfXEWhn_3PzwrjjU-17" value="" style="endArrow=none;html=1;" edge="1" parent="speEOfXEWhn_3PzwrjjU-18">
          <mxGeometry width="50" height="50" relative="1" as="geometry">
            <mxPoint y="8" as="sourcePoint" />
            <mxPoint x="16" y="8" as="targetPoint" />
          </mxGeometry>
        </mxCell>
        <mxCell id="speEOfXEWhn_3PzwrjjU-19" value="" style="rounded=0;whiteSpace=wrap;html=1;" vertex="1" parent="1">
          <mxGeometry x="170" y="690" width="150" height="80" as="geometry" />
        </mxCell>
        <mxCell id="speEOfXEWhn_3PzwrjjU-22" value="MENU ITEM 1" style="rounded=0;whiteSpace=wrap;html=1;" vertex="1" parent="1">
          <mxGeometry x="170" y="690" width="150" height="40" as="geometry" />
        </mxCell>
        <mxCell id="speEOfXEWhn_3PzwrjjU-23" value="MENU ITEM 2" style="rounded=0;whiteSpace=wrap;html=1;" vertex="1" parent="1">
          <mxGeometry x="170" y="730" width="150" height="40" as="geometry" />
        </mxCell>
        <mxCell id="speEOfXEWhn_3PzwrjjU-26" value="" style="shape=flexArrow;endArrow=classic;startArrow=classic;html=1;fillColor=#ffe6cc;strokeColor=#d79b00;" edge="1" parent="1">
          <mxGeometry width="50" height="50" relative="1" as="geometry">
            <mxPoint x="265" y="729" as="sourcePoint" />
            <mxPoint x="345" y="729" as="targetPoint" />
          </mxGeometry>
        </mxCell>
        <mxCell id="speEOfXEWhn_3PzwrjjU-27" value="" style="shape=image;html=1;verticalAlign=top;verticalLabelPosition=bottom;labelBackgroundColor=#ffffff;imageAspect=0;aspect=fixed;image=https://cdn2.iconfinder.com/data/icons/hawcons-gesture-stroke/32/icon_22_one_finger-128.png;sketch=0;" vertex="1" parent="1">
          <mxGeometry x="280" y="668" width="50" height="50" as="geometry" />
        </mxCell>
        <mxCell id="speEOfXEWhn_3PzwrjjU-29" value="" style="shape=image;html=1;verticalAlign=top;verticalLabelPosition=bottom;labelBackgroundColor=#ffffff;imageAspect=0;aspect=fixed;image=https://cdn4.iconfinder.com/data/icons/feather/24/arrow-up-circle-128.png;sketch=0;" vertex="1" parent="1">
          <mxGeometry x="760" y="529" width="42" height="42" as="geometry" />
        </mxCell>
        <mxCell id="speEOfXEWhn_3PzwrjjU-30" value="FOOTER" style="rounded=0;whiteSpace=wrap;html=1;" vertex="1" parent="1">
          <mxGeometry x="20" y="1360" width="300" height="80" as="geometry" />
        </mxCell>
        <mxCell id="speEOfXEWhn_3PzwrjjU-28" value="" style="shape=image;html=1;verticalAlign=top;verticalLabelPosition=bottom;labelBackgroundColor=#ffffff;imageAspect=0;aspect=fixed;image=https://cdn4.iconfinder.com/data/icons/feather/24/arrow-up-circle-128.png;sketch=0;" vertex="1" parent="1">
          <mxGeometry x="264.09000000000003" y="1380" width="42" height="42" as="geometry" />
        </mxCell>
        <mxCell id="speEOfXEWhn_3PzwrjjU-31" value="MODAL&lt;br&gt;DELAI AFFICHAGE : 3sec&lt;br&gt;SessionStorage JS (pour 1 seul affichage/session)" style="rounded=0;whiteSpace=wrap;html=1;sketch=0;" vertex="1" parent="1">
          <mxGeometry x="440" y="640" width="330" height="180" as="geometry" />
        </mxCell>
        <mxCell id="speEOfXEWhn_3PzwrjjU-32" value="" style="shape=flexArrow;endArrow=classic;html=1;fillColor=#ffe6cc;entryX=0.25;entryY=0;entryDx=0;entryDy=0;strokeColor=#d79b00;exitX=0.625;exitY=-0.022;exitDx=0;exitDy=0;exitPerimeter=0;" edge="1" parent="1" source="B3Y2nrr8rf5n5sNnrnTJ-50" target="speEOfXEWhn_3PzwrjjU-31">
          <mxGeometry width="50" height="50" relative="1" as="geometry">
            <mxPoint x="370" y="668" as="sourcePoint" />
            <mxPoint x="420" y="618" as="targetPoint" />
          </mxGeometry>
        </mxCell>
        <mxCell id="speEOfXEWhn_3PzwrjjU-33" value="Scroll to Top" style="text;html=1;strokeColor=none;fillColor=none;align=center;verticalAlign=middle;whiteSpace=wrap;rounded=0;sketch=0;" vertex="1" parent="1">
          <mxGeometry x="700" y="440" width="80" height="20" as="geometry" />
        </mxCell>
        <mxCell id="speEOfXEWhn_3PzwrjjU-34" value="" style="shape=flexArrow;endArrow=classic;html=1;fillColor=#ffe6cc;entryX=0.5;entryY=0;entryDx=0;entryDy=0;strokeColor=#d79b00;" edge="1" parent="1" source="speEOfXEWhn_3PzwrjjU-33" target="speEOfXEWhn_3PzwrjjU-29">
          <mxGeometry width="50" height="50" relative="1" as="geometry">
            <mxPoint x="670" y="540" as="sourcePoint" />
            <mxPoint x="720" y="490" as="targetPoint" />
          </mxGeometry>
        </mxCell>
      </root>
    </mxGraphModel>
  </diagram>
</mxfile>
